<svg xmlns="http://www.w3.org/2000/svg" viewBox="0 0 940 450" width="100%" height="100%">
  <defs>
    <filter id="pCardShadow" x="-10%" y="-10%" width="120%" height="125%">
      <feDropShadow dx="0" dy="8" stdDeviation="16" flood-color="#0F172A" flood-opacity="0.04"/>
    </filter>
    <style>
      .font-sans { font-family: -apple-system, BlinkMacSystemFont, 'Segoe UI', Roboto, Helvetica, Arial, sans-serif; }
    </style>
  </defs>

  <!-- Container -->
  <rect x="8" y="8" width="924" height="434" rx="20" fill="#FFFFFF" stroke="#E2E8F0" stroke-width="1.5" filter="url(#pCardShadow)"/>

  <!-- Section Header -->
  <g transform="translate(45, 36)">
    <rect x="0" y="0" width="158" height="24" rx="6" fill="#EEF2FF"/>
    <text x="10" y="16" class="font-sans" font-size="10.5" font-weight="800" fill="#4F46E5" letter-spacing="0.5">03 // CURRENTLY BUILDING</text>
    <text x="175" y="17" class="font-sans" font-size="18" font-weight="800" fill="#0F172A" letter-spacing="-0.3">Active Engineering &amp; Development Tracks</text>
  </g>

  <!-- 3 Project / Focus Cards -->
  <!-- Card 1: AttendX -->
  <g transform="translate(45, 80)">
    <rect x="0" y="0" width="270" height="325" rx="14" fill="#F8FAFC" stroke="#E2E8F0" stroke-width="1"/>
    
    <!-- Badges -->
    <rect x="18" y="18" width="45" height="22" rx="6" fill="#EFF6FF"/>
    <text x="30" y="33" class="font-sans" font-size="11" font-weight="800" fill="#2563EB">01</text>
    <rect x="175" y="18" width="75" height="22" rx="11" fill="#ECFDF5" stroke="#A7F3D0" stroke-width="1"/>
    <text x="185" y="33" class="font-sans" font-size="10" font-weight="700" fill="#065F46">DEPLOYED</text>

    <!-- Title & Domain -->
    <text x="18" y="75" class="font-sans" font-size="16.5" font-weight="800" fill="#0F172A">AttendX &amp; Web Apps</text>
    <text x="18" y="96" class="font-sans" font-size="12" font-weight="600" fill="#4F46E5">Full-Stack Production Suite</text>

    <!-- Description -->
    <text x="18" y="130" class="font-sans" font-size="12.5" font-weight="400" fill="#475569">
      <tspan x="18" dy="0">Shipped smart attendance system</tspan>
      <tspan x="18" dy="20">with AI face biometric verification,</tspan>
      <tspan x="18" dy="20">dynamic QR codes, and GPS geofencing</tspan>
      <tspan x="18" dy="20">with React, Node.js &amp; Tailwind.</tspan>
    </text>

    <!-- Tech Chips -->
    <g transform="translate(18, 230)">
      <rect x="0" y="0" width="55" height="24" rx="6" fill="#FFFFFF" stroke="#E2E8F0" stroke-width="1"/>
      <text x="10" y="16" class="font-sans" font-size="10.5" font-weight="600" fill="#334155">React</text>

      <rect x="62" y="0" width="60" height="24" rx="6" fill="#FFFFFF" stroke="#E2E8F0" stroke-width="1"/>
      <text x="70" y="16" class="font-sans" font-size="10.5" font-weight="600" fill="#334155">Node.js</text>

      <rect x="129" y="0" width="55" height="24" rx="6" fill="#FFFFFF" stroke="#E2E8F0" stroke-width="1"/>
      <text x="137" y="16" class="font-sans" font-size="10.5" font-weight="600" fill="#334155">AI-Face</text>
    </g>

    <!-- Bottom Indicator -->
    <line x1="18" y1="275" x2="250" y2="275" stroke="#E2E8F0" stroke-width="1"/>
    <text x="18" y="302" class="font-sans" font-size="12" font-weight="700" fill="#2563EB">Live Production App →</text>
  </g>

  <!-- Card 2: AI / Automation -->
  <g transform="translate(335, 80)">
    <rect x="0" y="0" width="270" height="325" rx="14" fill="#F8FAFC" stroke="#E2E8F0" stroke-width="1"/>
    
    <!-- Badges -->
    <rect x="18" y="18" width="45" height="22" rx="6" fill="#FAF5FF"/>
    <text x="30" y="33" class="font-sans" font-size="11" font-weight="800" fill="#9333EA">02</text>
    <rect x="165" y="18" width="85" height="22" rx="11" fill="#F5F3FF" stroke="#DDD6FE" stroke-width="1"/>
    <text x="175" y="33" class="font-sans" font-size="10" font-weight="700" fill="#6D28D9">AUTOMATING</text>

    <!-- Title & Domain -->
    <text x="18" y="75" class="font-sans" font-size="16.5" font-weight="800" fill="#0F172A">AI &amp; Automation</text>
    <text x="18" y="96" class="font-sans" font-size="12" font-weight="600" fill="#9333EA">Intelligent Workflow Scripts</text>

    <!-- Description -->
    <text x="18" y="130" class="font-sans" font-size="12.5" font-weight="400" fill="#475569">
      <tspan x="18" dy="0">Integrating smart AI APIs, vision</tspan>
      <tspan x="18" dy="20">processing, and custom Python automation</tspan>
      <tspan x="18" dy="20">to replace manual developer tasks with</tspan>
      <tspan x="18" dy="20">seamless intelligent pipelines.</tspan>
    </text>

    <!-- Tech Chips -->
    <g transform="translate(18, 230)">
      <rect x="0" y="0" width="60" height="24" rx="6" fill="#FFFFFF" stroke="#E2E8F0" stroke-width="1"/>
      <text x="9" y="16" class="font-sans" font-size="10.5" font-weight="600" fill="#334155">Python</text>

      <rect x="67" y="0" width="60" height="24" rx="6" fill="#FFFFFF" stroke="#E2E8F0" stroke-width="1"/>
      <text x="75" y="16" class="font-sans" font-size="10.5" font-weight="600" fill="#334155">AI APIs</text>

      <rect x="134" y="0" width="55" height="24" rx="6" fill="#FFFFFF" stroke="#E2E8F0" stroke-width="1"/>
      <text x="142" y="16" class="font-sans" font-size="10.5" font-weight="600" fill="#334155">Vision</text>
    </g>

    <!-- Bottom Indicator -->
    <line x1="18" y1="275" x2="250" y2="275" stroke="#E2E8F0" stroke-width="1"/>
    <text x="18" y="302" class="font-sans" font-size="12" font-weight="700" fill="#9333EA">Smart Workflows →</text>
  </g>

  <!-- Card 3: Problem Solving -->
  <g transform="translate(625, 80)">
    <rect x="0" y="0" width="270" height="325" rx="14" fill="#F8FAFC" stroke="#E2E8F0" stroke-width="1"/>
    
    <!-- Badges -->
    <rect x="18" y="18" width="45" height="22" rx="6" fill="#F0FDF4"/>
    <text x="30" y="33" class="font-sans" font-size="11" font-weight="800" fill="#16A34A">03</text>
    <rect x="165" y="18" width="85" height="22" rx="11" fill="#F0FDF4" stroke="#BBF7D0" stroke-width="1"/>
    <text x="175" y="33" class="font-sans" font-size="10" font-weight="700" fill="#166534">PRACTICING</text>

    <!-- Title & Domain -->
    <text x="18" y="75" class="font-sans" font-size="16.5" font-weight="800" fill="#0F172A">Problem Solving</text>
    <text x="18" y="96" class="font-sans" font-size="12" font-weight="600" fill="#16A34A">Data Structures &amp; Algorithms</text>

    <!-- Description -->
    <text x="18" y="130" class="font-sans" font-size="12.5" font-weight="400" fill="#475569">
      <tspan x="18" dy="0">Practicing core algorithms in Java and C.</tspan>
      <tspan x="18" dy="20">Focusing on computational complexity,</tspan>
      <tspan x="18" dy="20">space-time optimization, and solid</tspan>
      <tspan x="18" dy="20">foundations for clean systems code.</tspan>
    </text>

    <!-- Tech Chips -->
    <g transform="translate(18, 230)">
      <rect x="0" y="0" width="50" height="24" rx="6" fill="#FFFFFF" stroke="#E2E8F0" stroke-width="1"/>
      <text x="12" y="16" class="font-sans" font-size="10.5" font-weight="600" fill="#334155">Java</text>

      <rect x="57" y="0" width="40" height="24" rx="6" fill="#FFFFFF" stroke="#E2E8F0" stroke-width="1"/>
      <text x="70" y="16" class="font-sans" font-size="10.5" font-weight="600" fill="#334155">C</text>

      <rect x="104" y="0" width="85" height="24" rx="6" fill="#FFFFFF" stroke="#E2E8F0" stroke-width="1"/>
      <text x="114" y="16" class="font-sans" font-size="10.5" font-weight="600" fill="#334155">Algorithms</text>
    </g>

    <!-- Bottom Indicator -->
    <line x1="18" y1="275" x2="250" y2="275" stroke="#E2E8F0" stroke-width="1"/>
    <text x="18" y="302" class="font-sans" font-size="12" font-weight="700" fill="#16A34A">Core Foundations →</text>
  </g>
</svg>